<svg width="39" height="34" viewBox="0 0 39 34" fill="none" xmlns="http://www.w3.org/2000/svg">
<path d="M36.1977 3.3321C34.304 1.18334 31.6769 0 28.8004 0C24.7549 0 22.1936 2.41617 20.7574 4.44315C20.3848 4.96913 20.0678 5.49653 19.8016 5.99281C19.5355 5.49653 19.2186 4.96913 18.8459 4.44315C17.4097 2.41617 14.8484 0 10.8029 0C7.92641 0 5.29929 1.18341 3.40549 3.33217C1.59914 5.38195 0.604248 8.12717 0.604248 11.0621C0.604248 14.2569 1.85155 17.2284 4.52959 20.4134C6.92304 23.26 10.3664 26.1942 14.3536 29.5919C15.8394 30.858 17.3759 32.1673 19.0116 33.5985L19.0607 33.6416C19.2728 33.8272 19.5372 33.92 19.8016 33.92C20.0661 33.92 20.3305 33.8272 20.5425 33.6416L20.5917 33.5985C22.2274 32.1673 23.7639 30.8581 25.2499 29.5917C29.2369 26.1942 32.6803 23.26 35.0737 20.4134C37.7517 17.2283 38.999 14.2569 38.999 11.0621C38.999 8.12717 38.0042 5.38194 36.1977 3.3321ZM23.7906 27.8796C22.5098 28.971 21.1916 30.0942 19.8016 31.3026C18.4118 30.0944 17.0935 28.971 15.8125 27.8794C8.00912 21.2298 2.85394 16.8369 2.85394 11.0621C2.85394 8.6752 3.64921 6.4582 5.09329 4.8196C6.55394 3.1624 8.58159 2.24969 10.8029 2.24969C13.8871 2.24969 15.8809 4.14979 17.0102 5.74377C18.0233 7.17338 18.5519 8.61453 18.7321 9.16773C18.8829 9.63079 19.3147 9.94418 19.8016 9.94418C20.2886 9.94418 20.7203 9.63079 20.8712 9.16773C21.0514 8.61453 21.58 7.17338 22.5931 5.7437C23.7224 4.14979 25.7162 2.24969 28.8004 2.24969C31.0217 2.24969 33.0494 3.1624 34.5099 4.8196C35.9541 6.4582 36.7494 8.6752 36.7494 11.0621C36.7494 16.8369 31.5942 21.2298 23.7906 27.8796Z" fill="black"/>
</svg>
