<svg width="26" height="26" viewBox="0 0 26 26" fill="none" xmlns="http://www.w3.org/2000/svg">
<g clip-path="url(#clip0)">
<path d="M4.26844 24.1167C3.78396 24.6768 3.11069 25.0398 2.37646 25.1367L2.48398 25.9967C3.41145 25.8817 4.26547 25.4332 4.88668 24.7348L6.02496 25.873C6.14899 25.9971 6.33524 26.0341 6.49737 25.967C6.65928 25.8999 6.7649 25.7418 6.7649 25.5666V21.6317L7.60707 23.1755C7.88942 23.6932 8.40797 24.0393 8.99426 24.1011C9.05648 24.1076 9.11913 24.111 9.18199 24.111C9.70584 24.1117 10.2039 23.8833 10.5453 23.486C10.9339 23.0324 11.0712 22.415 10.9118 21.8393C10.7525 21.2636 10.3169 20.805 9.75007 20.616L9.4091 20.5019L24.5805 19.0231C24.7142 19.0099 24.8343 18.9354 24.9056 18.8214C24.9769 18.7075 24.9913 18.5669 24.9445 18.4408L24.8577 18.2076C24.5259 17.3116 24.1474 16.4373 23.7309 15.5839C24.0793 15.5492 24.393 15.3583 24.5837 15.0645C24.7741 14.7707 24.8209 14.4062 24.7104 14.0742C24.652 13.8943 24.5782 13.7182 24.5123 13.5399L25.6961 12.4478C25.7852 12.3657 25.8358 12.2501 25.8358 12.1291C25.8358 12.008 25.7852 11.8926 25.6961 11.8105L24.5132 10.719C24.5792 10.5408 24.6516 10.3649 24.7104 10.1846C24.8256 9.83071 24.7644 9.44317 24.546 9.14177C24.3276 8.84059 23.9781 8.66195 23.606 8.66132H22.5998L23.9068 7.35393C24.1805 7.08047 24.3085 6.69357 24.2522 6.31068C24.1961 5.92801 23.9622 5.59423 23.6217 5.41073L23.2181 5.194H23.2367V3.4597C23.2367 3.22032 23.0426 3.02623 22.8032 3.02623H21.1591L20.8526 2.45582C20.6691 2.11527 20.3353 1.8814 19.9527 1.8251C19.5698 1.76901 19.1829 1.89706 18.9094 2.17073L17.6016 3.4779V2.22343C17.601 1.85155 17.4223 1.50211 17.1211 1.28368C16.8202 1.06526 16.4326 1.00409 16.0787 1.11902C15.8988 1.17701 15.723 1.24897 15.5447 1.3167L14.4524 0.133342C14.3684 0.0480455 14.2537 0 14.1339 0C14.0141 0 13.8993 0.0480455 13.8153 0.133342L12.7289 1.30887C12.55 1.24262 12.371 1.17659 12.1894 1.11732C11.8351 1.00218 11.4471 1.06356 11.1459 1.28241C10.8445 1.50126 10.6661 1.85113 10.6661 2.22343V2.24608C10.0288 1.91928 9.38349 1.60709 8.72059 1.32665C8.71593 1.32665 8.71106 1.32665 8.70641 1.32665C8.65138 1.30464 8.59232 1.29469 8.53306 1.29723H8.50999C8.45602 1.30189 8.40332 1.31649 8.35485 1.34062C8.34956 1.34358 8.34532 1.34739 8.34003 1.35057C8.33495 1.35353 8.33495 1.35057 8.33284 1.35057C8.33051 1.35057 8.3267 1.35734 8.32268 1.36009C8.27124 1.39205 8.2268 1.43438 8.19272 1.48454C8.19272 1.48835 8.18933 1.49216 8.18658 1.49618C8.15208 1.54994 8.12986 1.6109 8.1216 1.6744L6.20148 17.8022L5.92611 16.7937C5.72568 16.0588 5.05918 15.5485 4.29765 15.5464C3.5359 15.5445 2.86686 16.0514 2.6624 16.785C2.45816 17.5188 2.76908 18.2986 3.42203 18.6906L4.76667 19.498H0.696348C0.521098 19.498 0.362992 19.6036 0.295898 19.7658C0.228803 19.9277 0.265843 20.1139 0.389872 20.238L2.87152 22.7196C2.0721 23.1598 1.17553 23.3935 0.26288 23.3992V24.2662C1.40878 24.2619 2.53266 23.9512 3.5177 23.366L4.26844 24.1167ZM9.47577 21.4366C9.8705 21.5676 10.1298 21.9456 10.1101 22.3611C10.0902 22.7765 9.79621 23.1281 9.3909 23.221C8.98537 23.3139 8.56756 23.1258 8.36882 22.7605L7.25044 20.7119L7.28769 20.7078L9.47577 21.4366ZM24.1665 11.5769L24.7646 12.1291L24.1665 12.6813C24.0842 12.4976 24.0003 12.3143 23.9108 12.1339C24.0022 11.9504 24.0833 11.7633 24.1665 11.5769ZM23.8456 14.6077C23.7904 14.6848 23.7011 14.7305 23.606 14.7299H23.2926C23.1486 14.4573 23.0047 14.1846 22.8521 13.9171C23.0424 13.642 23.225 13.3628 23.3948 13.0771C23.5804 13.4894 23.7447 13.9108 23.8869 14.3398C23.9178 14.4304 23.9023 14.5305 23.8456 14.6077ZM23.606 9.52825C23.7008 9.52847 23.79 9.57376 23.8456 9.65059C23.9013 9.72721 23.9169 9.82605 23.8877 9.91622C23.5195 11.0359 23.0062 12.1024 22.3611 13.0889C21.6886 11.9938 20.9455 10.944 20.1366 9.94564C20.6189 9.90013 21.0875 9.75832 21.514 9.52825H23.606ZM23.2107 6.17417C23.3099 6.22772 23.3781 6.32508 23.3944 6.43683C23.4107 6.54837 23.3734 6.66118 23.2938 6.74119L22.3727 7.66443C22.4904 7.28514 22.5325 6.88638 22.4967 6.49101C22.4707 6.23237 22.4273 5.97564 22.3668 5.72292L23.2107 6.17417ZM22.3698 3.89317V4.73682L21.9409 4.50612C21.9033 4.42802 21.8709 4.34801 21.8292 4.27118L21.626 3.89317H22.3698ZM17.9879 4.31754L19.5219 2.78347C19.6017 2.70431 19.7139 2.66706 19.8252 2.68293C19.9372 2.6988 20.0346 2.76717 20.0879 2.86686L21.0653 4.68222C21.3805 5.26554 21.5735 5.90685 21.6328 6.56721C21.7049 7.22884 21.4556 7.88497 20.9622 8.33156C20.4968 8.75762 19.8703 8.96208 19.2432 8.89244C18.6025 8.17197 17.9278 7.48367 17.2194 6.82733C17.0424 5.9151 17.3303 4.97451 17.9879 4.31754ZM23.9332 18.2133L8.79488 19.6891C11.3263 18.2423 13.2242 15.8999 14.1148 13.1234C15.378 9.01732 13.5895 5.84124 11.7485 3.82861C17.3144 7.11412 21.6078 12.1828 23.9332 18.2133ZM16.3446 1.94256C16.435 1.91251 16.5344 1.92775 16.6117 1.98362C16.6889 2.0395 16.7349 2.12903 16.7347 2.22428V3.5759C16.2121 3.15831 15.6618 2.7769 15.0876 2.43424C15.4978 2.24904 15.9175 2.08501 16.3446 1.94256ZM14.1339 1.06483L14.6861 1.66297C14.5023 1.7453 14.3184 1.82785 14.1381 1.91738C13.9565 1.82721 13.774 1.73811 13.5886 1.65514L14.1339 1.06483ZM11.533 2.22343C11.5333 2.1284 11.579 2.03887 11.6562 1.98341C11.7335 1.92775 11.8328 1.91251 11.9231 1.94256C13.6809 2.51805 15.3032 3.44531 16.6913 4.66782C16.4807 5.09007 16.3537 5.54894 16.3177 6.01945C14.8363 4.7582 13.2335 3.6468 11.533 2.70156V2.22343ZM8.89965 2.46704C9.92109 3.17672 10.8388 4.02503 11.6262 4.98763C13.5872 7.42293 14.1455 10.0745 13.286 12.8686C12.0033 17.0369 8.44501 19 6.9175 19.6714L6.85337 19.6498L8.89965 2.46704ZM4.78953 23.4119L4.2568 22.8792C4.71228 22.5384 5.13495 22.1562 5.51953 21.7373C5.3466 22.3236 5.1013 22.8862 4.78953 23.4119ZM5.89796 24.5202L5.42111 24.0435C5.60017 23.7707 5.75954 23.4858 5.89796 23.1903V24.5202ZM3.86672 17.9472C3.54839 17.7557 3.39706 17.3753 3.49675 17.0176C3.59644 16.6599 3.92281 16.4127 4.29426 16.4136C4.66571 16.4146 4.99081 16.6633 5.0886 17.0217L5.62916 19.0049L3.86672 17.9472ZM1.74277 20.365H5.5208C4.9906 21.0869 4.3531 21.7236 3.63051 22.2527L1.74277 20.365Z" fill="black"/>
</g>
<defs>
<clipPath id="clip0">
<rect width="26" height="26" fill="white"/>
</clipPath>
</defs>
</svg>
