<svg width="25" height="23" viewBox="0 0 25 23" fill="none" xmlns="http://www.w3.org/2000/svg">
<path d="M7.03125 11.1582H5.46875C5.06426 11.1582 4.73633 11.4861 4.73633 11.8906C4.73633 12.2951 5.06426 12.623 5.46875 12.623H7.03125C7.43574 12.623 7.76367 12.2951 7.76367 11.8906C7.76367 11.4861 7.43574 11.1582 7.03125 11.1582Z" fill="black"/>
<path d="M7.03125 14.2832H5.46875C5.06426 14.2832 4.73633 14.6111 4.73633 15.0156C4.73633 15.4201 5.06426 15.748 5.46875 15.748H7.03125C7.43574 15.748 7.76367 15.4201 7.76367 15.0156C7.76367 14.6111 7.43574 14.2832 7.03125 14.2832Z" fill="black"/>
<path d="M7.03125 17.4082H5.46875C5.06426 17.4082 4.73633 17.7361 4.73633 18.1406C4.73633 18.5451 5.06426 18.873 5.46875 18.873H7.03125C7.43574 18.873 7.76367 18.5451 7.76367 18.1406C7.76367 17.7361 7.43574 17.4082 7.03125 17.4082Z" fill="black"/>
<path d="M13.2812 11.1582H11.7188C11.3143 11.1582 10.9863 11.4861 10.9863 11.8906C10.9863 12.2951 11.3143 12.623 11.7188 12.623H13.2812C13.6857 12.623 14.0137 12.2951 14.0137 11.8906C14.0137 11.4861 13.6857 11.1582 13.2812 11.1582Z" fill="black"/>
<path d="M13.2812 14.2832H11.7188C11.3143 14.2832 10.9863 14.6111 10.9863 15.0156C10.9863 15.4201 11.3143 15.748 11.7188 15.748H13.2812C13.6857 15.748 14.0137 15.4201 14.0137 15.0156C14.0137 14.6111 13.6857 14.2832 13.2812 14.2832Z" fill="black"/>
<path d="M13.2812 17.4082H11.7188C11.3143 17.4082 10.9863 17.7361 10.9863 18.1406C10.9863 18.5451 11.3143 18.873 11.7188 18.873H13.2812C13.6857 18.873 14.0137 18.5451 14.0137 18.1406C14.0137 17.7361 13.6857 17.4082 13.2812 17.4082Z" fill="black"/>
<path d="M19.5312 11.1582H17.9688C17.5643 11.1582 17.2363 11.4861 17.2363 11.8906C17.2363 12.2951 17.5643 12.623 17.9688 12.623H19.5312C19.9357 12.623 20.2637 12.2951 20.2637 11.8906C20.2637 11.4861 19.9357 11.1582 19.5312 11.1582Z" fill="black"/>
<path d="M19.5312 14.2832H17.9688C17.5643 14.2832 17.2363 14.6111 17.2363 15.0156C17.2363 15.4201 17.5643 15.748 17.9688 15.748H19.5312C19.9357 15.748 20.2637 15.4201 20.2637 15.0156C20.2637 14.6111 19.9357 14.2832 19.5312 14.2832Z" fill="black"/>
<path d="M19.5312 17.4082H17.9688C17.5643 17.4082 17.2363 17.7361 17.2363 18.1406C17.2363 18.5451 17.5643 18.873 17.9688 18.873H19.5312C19.9357 18.873 20.2637 18.5451 20.2637 18.1406C20.2637 17.7361 19.9357 17.4082 19.5312 17.4082Z" fill="black"/>
<path d="M22.8027 2.17383H21.0449V0.953125C21.0449 0.548633 20.717 0.220703 20.3125 0.220703C19.908 0.220703 19.5801 0.548633 19.5801 0.953125V2.17383H13.2324V0.953125C13.2324 0.548633 12.9045 0.220703 12.5 0.220703C12.0955 0.220703 11.7676 0.548633 11.7676 0.953125V2.17383H5.41992V0.953125C5.41992 0.548633 5.09199 0.220703 4.6875 0.220703C4.28301 0.220703 3.95508 0.548633 3.95508 0.953125V2.17383H2.19727C0.985693 2.17383 0 3.15952 0 4.37109V20.582C0 21.7936 0.985693 22.7793 2.19727 22.7793H22.8027C24.0143 22.7793 25 21.7936 25 20.582C25 20.1093 25 4.78247 25 4.37109C25 3.15952 24.0143 2.17383 22.8027 2.17383ZM1.46484 4.37109C1.46484 3.96724 1.79341 3.63867 2.19727 3.63867H3.95508V4.85938C3.95508 5.26387 4.28301 5.5918 4.6875 5.5918C5.09199 5.5918 5.41992 5.26387 5.41992 4.85938V3.63867H11.7676V4.85938C11.7676 5.26387 12.0955 5.5918 12.5 5.5918C12.9045 5.5918 13.2324 5.26387 13.2324 4.85938V3.63867H19.5801V4.85938C19.5801 5.26387 19.908 5.5918 20.3125 5.5918C20.717 5.5918 21.0449 5.26387 21.0449 4.85938V3.63867H22.8027C23.2066 3.63867 23.5352 3.96724 23.5352 4.37109V7.25195H1.46484V4.37109ZM22.8027 21.3145H2.19727C1.79341 21.3145 1.46484 20.9859 1.46484 20.582V8.7168H23.5352V20.582C23.5352 20.9859 23.2066 21.3145 22.8027 21.3145Z" fill="black"/>
</svg>
