<svg width="42" height="42" viewBox="0 0 42 42" fill="none" xmlns="http://www.w3.org/2000/svg">
<path d="M13.3982 32.6685C10.9765 32.6685 9.01343 34.6316 9.01343 37.0532C9.01343 39.4749 10.9766 41.4379 13.3982 41.4379C15.8198 41.4379 17.7829 39.4748 17.7829 37.0532C17.783 34.6316 15.8198 32.6685 13.3982 32.6685ZM13.3982 39.4892C12.0528 39.4892 10.9622 38.3986 10.9622 37.0533C10.9622 35.7079 12.0528 34.6173 13.3982 34.6173C14.7435 34.6173 15.8341 35.7079 15.8341 37.0533C15.8342 38.3986 14.7435 39.4892 13.3982 39.4892Z" fill="black"/>
<path d="M31.9116 32.6685C29.4899 32.6685 27.5269 34.6316 27.5269 37.0532C27.5269 39.4749 29.49 41.4379 31.9116 41.4379C34.3332 41.4379 36.2963 39.4748 36.2963 37.0532C36.2963 34.6316 34.3332 32.6685 31.9116 32.6685ZM31.9116 39.4892C30.5662 39.4892 29.4756 38.3986 29.4756 37.0533C29.4756 35.7079 30.5662 34.6173 31.9116 34.6173C33.2569 34.6173 34.3475 35.7079 34.3475 37.0533C34.3476 38.3986 33.2569 39.4892 31.9116 39.4892Z" fill="black"/>
<path d="M41.8016 7.09051C41.5987 6.86885 41.3211 6.73009 41.0221 6.70072L9.30571 6.26225L8.42876 3.58264C7.81096 1.79136 6.13354 0.582061 4.23884 0.562012H0.974637C0.436478 0.562012 0.000244141 0.998246 0.000244141 1.53641C0.000244141 2.07456 0.436478 2.5108 0.974637 2.5108H4.23884C5.29828 2.5342 6.23118 3.21448 6.57742 4.21601L12.7648 22.8756L12.2777 23.9961C11.7343 25.3973 11.8975 26.9744 12.7161 28.2347C13.527 29.4726 14.8911 30.2365 16.3701 30.281H35.3221C35.8602 30.281 36.2965 29.8447 36.2965 29.3066C36.2965 28.7684 35.8602 28.3322 35.3221 28.3322H16.37C15.5348 28.3113 14.7659 27.8719 14.3238 27.1629C13.8866 26.4626 13.7968 25.5998 14.0802 24.8243L14.47 23.9474L34.981 21.8037C37.2339 21.5555 39.0872 19.9169 39.6093 17.7112L41.9479 7.91859C42.0533 7.6366 41.9973 7.31945 41.8016 7.09051ZM37.7092 17.2728C37.3929 18.6927 36.1875 19.74 34.7374 19.855L14.47 21.9499L9.93907 8.21103L39.8041 8.6495L37.7092 17.2728Z" fill="black"/>
</svg>
