<svg width="25" height="25" viewBox="0 0 25 25" fill="none" xmlns="http://www.w3.org/2000/svg">
<g clip-path="url(#clip0)">
<path d="M23.2143 16.0713C22.7211 16.0713 22.3214 16.471 22.3214 16.9642V22.3213C22.3214 22.8144 21.9216 23.2142 21.4285 23.2142H3.57146C3.07833 23.2142 2.67859 22.8144 2.67859 22.3213V16.9642C2.67859 16.471 2.27884 16.0713 1.78571 16.0713C1.29258 16.0713 0.892838 16.471 0.892838 16.9642V22.3213C0.892838 23.8006 2.09207 24.9999 3.57141 24.9999H21.4286C22.9079 24.9999 24.1071 23.8006 24.1071 22.3213V16.9642C24.1071 16.471 23.7074 16.0713 23.2143 16.0713Z" fill="#F49D9C"/>
<path d="M17.5754 15.4402C17.2293 15.106 16.6808 15.106 16.3348 15.4402L13.3929 18.3803V0.892874C13.3929 0.399745 12.9931 0 12.5 0C12.0069 0 11.6071 0.399745 11.6071 0.892874V18.3804L8.66692 15.4402C8.31222 15.0976 7.747 15.1074 7.40444 15.4621C7.07025 15.8081 7.07025 16.3566 7.40444 16.7027L11.8687 21.1669C12.217 21.516 12.7823 21.5168 13.1314 21.1685C13.1319 21.168 13.1324 21.1675 13.133 21.1669L17.5973 16.7027C17.9399 16.348 17.9301 15.7827 17.5754 15.4402Z" fill="#F49D9C"/>
</g>
<defs>
<clipPath id="clip0">
<rect width="25" height="25" fill="white"/>
</clipPath>
</defs>
</svg>
