<svg width="31" height="31" viewBox="0 0 31 31" fill="none" xmlns="http://www.w3.org/2000/svg">
<path d="M26.6854 2.12828C25.1229 0.568569 22.5927 0.568569 21.0303 2.12828L19.6147 3.55163L4.54575 18.6125L4.51373 18.6448C4.50597 18.6526 4.50597 18.6608 4.49771 18.6608C4.4817 18.6848 4.45768 18.7086 4.44192 18.7326C4.44192 18.7406 4.43366 18.7406 4.43366 18.7486C4.41765 18.7727 4.4099 18.7887 4.39363 18.8127C4.38588 18.8207 4.38588 18.8285 4.37787 18.8367C4.36986 18.8607 4.36186 18.8767 4.3536 18.9008C4.3536 18.9085 4.34585 18.9085 4.34585 18.9168L1.00251 28.9706C0.904432 29.2568 0.97899 29.5738 1.19441 29.7862C1.34577 29.9356 1.54993 30.0191 1.76235 30.0184C1.84916 30.0169 1.93523 30.0034 2.01829 29.9783L12.0643 26.627C12.0721 26.627 12.0721 26.627 12.0803 26.6192C12.1056 26.6117 12.1299 26.601 12.1521 26.587C12.1584 26.5862 12.1639 26.5835 12.1684 26.5792C12.1922 26.5632 12.2242 26.5469 12.2482 26.5309C12.272 26.5152 12.2963 26.4911 12.3203 26.4751C12.3283 26.4669 12.336 26.4669 12.336 26.4591C12.3443 26.4511 12.3603 26.4434 12.3683 26.4271L28.8528 9.94258C30.4125 8.38012 30.4125 5.84991 28.8528 4.2877L26.6854 2.12828ZM11.8084 24.7473L6.24156 19.1807L20.1746 5.24769L25.7414 10.8143L11.8084 24.7473ZM5.45746 20.6604L10.3207 25.5234L3.01807 27.9548L5.45746 20.6604ZM27.7252 8.82271L26.8773 9.67862L21.3102 4.11156L22.1664 3.2559C23.1029 2.32018 24.6208 2.32018 25.5575 3.2559L27.7329 5.43133C28.6624 6.37206 28.6589 7.88649 27.7252 8.82271Z" fill="#5B5F60"/>
</svg>
