<svg width="36" height="34" viewBox="0 0 36 34" fill="none" xmlns="http://www.w3.org/2000/svg">
<path d="M26.2551 0H9.74485C4.37145 0 0 4.12859 0 9.20347V24.7967C0 29.8713 4.37145 33.9999 9.74485 33.9999H26.2554C31.6285 33.9999 35.9999 29.8713 35.9999 24.7967V9.20347C35.9999 4.12859 31.6285 0 26.2551 0V0ZM18 26.2966C12.5722 26.2966 8.15651 22.1262 8.15651 17C8.15651 11.8737 12.5722 7.70337 18 7.70337C23.4278 7.70337 27.8434 11.8737 27.8434 17C27.8434 22.1262 23.4278 26.2966 18 26.2966ZM28.0788 9.89581C26.4748 9.89581 25.1702 8.66366 25.1702 7.14877C25.1702 5.63388 26.4748 4.40148 28.0788 4.40148C29.6828 4.40148 30.9877 5.63388 30.9877 7.14877C30.9877 8.66366 29.6828 9.89581 28.0788 9.89581Z" fill="white"/>
<path d="M18 9.69678C13.7362 9.69678 10.267 12.973 10.267 17.0002C10.267 21.0271 13.7362 24.3035 18 24.3035C22.264 24.3035 25.7329 21.0271 25.7329 17.0002C25.7329 12.973 22.264 9.69678 18 9.69678Z" fill="white"/>
<path d="M28.0788 6.39502C27.6388 6.39502 27.2806 6.73328 27.2806 7.14883C27.2806 7.56439 27.6388 7.90265 28.0788 7.90265C28.5191 7.90265 28.8772 7.56465 28.8772 7.14883C28.8772 6.73302 28.5191 6.39502 28.0788 6.39502Z" fill="white"/>
</svg>
