<svg width="42" height="28" viewBox="0 0 42 28" fill="none" xmlns="http://www.w3.org/2000/svg">
<path d="M39.8461 0H2.15389C0.969199 0 0 0.969199 0 2.15381V25.8462C0 27.0307 0.969199 28.0001 2.15389 28.0001H39.8462C41.0307 28.0001 42.0001 27.0309 42.0001 25.8462V2.15381C42 0.969199 41.0308 0 39.8461 0ZM39.0379 1.61528L22.239 14.2154C21.937 14.4453 21.4733 14.5891 20.9999 14.587C20.5266 14.5891 20.063 14.4453 19.7609 14.2154L2.96207 1.61528H39.0379ZM30.0645 15.0468L39.2183 26.3546C39.2275 26.3659 39.2387 26.3745 39.2485 26.3848H2.75149C2.76117 26.374 2.77249 26.3659 2.78168 26.3546L11.9355 15.0468C12.216 14.7001 12.1629 14.1917 11.8155 13.9106C11.4687 13.6301 10.9604 13.6833 10.6798 14.0301L1.61536 25.2275V2.62492L18.7922 15.5076C19.4379 15.9885 20.2234 16.2001 20.9998 16.2022C21.7752 16.2006 22.5614 15.989 23.2075 15.5076L40.3843 2.62492V25.2273L31.3201 14.0301C31.0396 13.6834 30.5307 13.6301 30.1845 13.9106C29.8371 14.1911 29.7838 14.7001 30.0645 15.0468Z" fill="black"/>
</svg>
