<svg width="26" height="26" viewBox="0 0 26 26" fill="none" xmlns="http://www.w3.org/2000/svg">
<g clip-path="url(#clip0)">
<path d="M25.1088 12.4738C25.0338 9.07267 23.6873 5.90301 21.3173 3.54902C18.9508 1.1984 15.8432 -0.0604234 12.5671 0.00225972C9.28994 -0.0608202 6.18366 1.1986 3.8171 3.54902C1.44711 5.90301 0.100668 9.07267 0.025643 12.4738L0.0254517 12.4845V12.4953C0.0426768 15.9617 1.47447 19.2571 3.96084 21.5669V24.7095C3.96084 25.3195 4.37176 25.8509 4.93789 25.9731C5.02172 25.9912 5.10612 26.0001 5.18995 26.0001C5.4179 26.0001 5.64183 25.934 5.83877 25.8065L8.27575 24.2287C9.65014 24.7274 11.0846 24.9801 12.5426 24.9801H12.5606C12.6414 24.9817 12.7214 24.9825 12.8018 24.9825C15.9917 24.9823 19.0074 23.7278 21.3173 21.4336C23.6873 19.0796 25.0338 15.9099 25.1088 12.5087L25.1092 12.4913L25.1088 12.4738ZM20.2993 20.3326C18.2124 22.4053 15.4709 23.5136 12.5817 23.4555L12.5658 23.4553C12.5579 23.4553 12.5503 23.4553 12.5426 23.4553C11.1937 23.4553 9.86756 23.2111 8.60112 22.7297C8.28609 22.6099 7.94273 22.6464 7.65928 22.8298L5.43206 24.2719V21.3812C5.43206 21.0588 5.29675 20.752 5.06076 20.5393C2.81364 18.5146 1.51505 15.5842 1.49687 12.498C1.56519 9.50709 2.75048 6.72047 4.83511 4.65014C6.92185 2.57723 9.6643 1.46956 12.5526 1.52729L12.5671 1.52768L12.5817 1.52729C15.4728 1.46837 18.2124 2.57723 20.2993 4.65014C22.3821 6.71888 23.5672 9.50312 23.6374 12.4915C23.5673 15.4796 22.3821 18.2639 20.2993 20.3326Z" fill="black"/>
<path d="M15.0769 7.32178C14.3287 7.32178 13.6445 7.56636 13.043 8.04858C12.8745 8.18347 12.7153 8.33522 12.5662 8.50244C12.4171 8.33502 12.2581 8.18347 12.0896 8.04858C11.4879 7.56636 10.8037 7.32178 10.0557 7.32178C9.06317 7.32178 8.14985 7.73418 7.48381 8.483C6.83308 9.21457 6.47479 10.209 6.47479 11.2829C6.47479 13.605 8.19234 15.1219 10.5696 17.2216C10.96 17.5665 11.4027 17.9577 11.8613 18.3731C12.0563 18.5502 12.3067 18.6476 12.5662 18.6476C12.8257 18.6476 13.0761 18.5502 13.2709 18.3735C13.7331 17.9543 14.1741 17.5649 14.5632 17.2214C16.9403 15.1219 18.6578 13.605 18.6578 11.2829C18.6578 10.2088 18.2993 9.21457 17.6486 8.4828C16.9826 7.73418 16.0692 7.32178 15.0769 7.32178ZM13.6089 16.0607C13.291 16.3416 12.9386 16.6528 12.5662 16.9873C12.1961 16.6546 11.8427 16.3426 11.5239 16.0609C9.29265 14.0904 7.94602 12.901 7.94602 11.2829C7.94602 9.87116 8.83331 8.8466 10.0557 8.8466C10.476 8.8466 10.8469 8.9801 11.1895 9.25464C11.5051 9.50775 11.7279 9.83267 11.8594 10.061C12.0071 10.3177 12.278 10.477 12.5662 10.477C12.8544 10.477 13.1254 10.3177 13.2732 10.0608C13.4047 9.83267 13.6275 9.50775 13.9431 9.25464C14.2857 8.9801 14.6564 8.8466 15.0769 8.8466C16.2993 8.8466 17.1866 9.87116 17.1866 11.2829C17.1866 12.901 15.8399 14.0904 13.6089 16.0607Z" fill="black"/>
</g>
<defs>
<clipPath id="clip0">
<rect width="25.037" height="26" fill="white"/>
</clipPath>
</defs>
</svg>
