<svg width="23" height="27" viewBox="0 0 23 27" fill="none" xmlns="http://www.w3.org/2000/svg">
<path d="M11.5419 14.4707C11.5678 14.4707 11.5936 14.4707 11.6247 14.4707C11.6351 14.4707 11.6454 14.4707 11.6558 14.4707C11.6713 14.4707 11.692 14.4707 11.7075 14.4707C13.2244 14.4448 14.4514 13.9116 15.3574 12.8917C17.3505 10.6449 17.0192 6.79313 16.983 6.42556C16.8535 3.66619 15.5489 2.34604 14.4721 1.72997C13.6696 1.26921 12.7326 1.02071 11.6868 1H11.6506C11.6454 1 11.6351 1 11.6299 1H11.5988C11.0242 1 9.89556 1.09319 8.81355 1.70926C7.72637 2.32533 6.40104 3.64548 6.27162 6.42556C6.23538 6.79313 5.90404 10.6449 7.89721 12.8917C8.79802 13.9116 10.025 14.4448 11.5419 14.4707ZM7.65389 6.55499C7.65389 6.53946 7.65907 6.52393 7.65907 6.51357C7.82991 2.80162 10.465 2.40298 11.5936 2.40298H11.6143C11.6247 2.40298 11.6402 2.40298 11.6558 2.40298C13.0536 2.43405 15.4298 3.00352 15.5903 6.51357C15.5903 6.5291 15.5903 6.54464 15.5955 6.55499C15.6007 6.59123 15.9631 10.1116 14.3168 11.965C13.6645 12.7002 12.7947 13.0626 11.6506 13.0729C11.6402 13.0729 11.6351 13.0729 11.6247 13.0729C11.6143 13.0729 11.6092 13.0729 11.5988 13.0729C10.4599 13.0626 9.58494 12.7002 8.9378 11.965C7.29667 10.122 7.64872 6.58605 7.65389 6.55499Z" fill="#F49D9C" stroke="#F49D9C"/>
<path d="M22.2636 20.8589C22.2636 20.8537 22.2636 20.8485 22.2636 20.8433C22.2636 20.8019 22.2584 20.7605 22.2584 20.7139C22.2274 19.6889 22.1601 17.2919 19.9132 16.5257C19.8977 16.5205 19.877 16.5153 19.8614 16.5101C17.5266 15.9148 15.5852 14.5687 15.5645 14.5532C15.2487 14.3306 14.8138 14.4083 14.5912 14.7241C14.3686 15.0399 14.4462 15.4747 14.762 15.6973C14.85 15.7595 16.9105 17.1935 19.4887 17.8562C20.695 18.2859 20.8296 19.575 20.8658 20.7553C20.8658 20.8019 20.8658 20.8433 20.871 20.8848C20.8761 21.3507 20.8451 22.0703 20.7623 22.4845C19.9236 22.9608 16.6361 24.6071 11.6351 24.6071C6.65476 24.6071 3.34662 22.9556 2.50276 22.4793C2.41992 22.0651 2.38368 21.3455 2.39404 20.8796C2.39404 20.8382 2.39922 20.7968 2.39922 20.7502C2.43546 19.5698 2.57006 18.2807 3.77631 17.851C6.35449 17.1883 8.41496 15.7491 8.50297 15.6922C8.81877 15.4696 8.89643 15.0347 8.67381 14.7189C8.4512 14.4031 8.01633 14.3254 7.70053 14.548C7.67982 14.5636 5.74877 15.9096 3.40357 16.505C3.38286 16.5101 3.36733 16.5153 3.3518 16.5205C1.10495 17.2919 1.03765 19.6889 1.00659 20.7087C1.00659 20.7553 1.00659 20.7968 1.00141 20.8382C1.00141 20.8433 1.00141 20.8485 1.00141 20.8537C0.996232 21.1229 0.991055 22.5052 1.26544 23.1989C1.31721 23.3335 1.4104 23.4474 1.53465 23.5251C1.68996 23.6286 5.41227 25.9997 11.6403 25.9997C17.8683 25.9997 21.5906 23.6234 21.7459 23.5251C21.865 23.4474 21.9633 23.3335 22.0151 23.1989C22.274 22.5104 22.2688 21.1281 22.2636 20.8589Z" fill="#F49D9C" stroke="#F49D9C"/>
</svg>
