<svg width="33" height="33" viewBox="0 0 33 33" fill="none" xmlns="http://www.w3.org/2000/svg">
<path d="M16.5 33C7.40154 33 0 25.5985 0 16.5C0 7.40154 7.40154 0 16.5 0C25.5985 0 33 7.40154 33 16.5C33 25.5985 25.5985 33 16.5 33ZM16.5 2.0625C8.53878 2.0625 2.0625 8.53878 2.0625 16.5C2.0625 24.4612 8.53878 30.9375 16.5 30.9375C24.4612 30.9375 30.9375 24.4612 30.9375 16.5C30.9375 8.53878 24.4612 2.0625 16.5 2.0625Z" fill="#5B5F60"/>
<path d="M11.3962 22.6351C11.1321 22.6351 10.868 22.5349 10.6674 22.3327C10.2645 21.9299 10.2645 21.2768 10.6674 20.874L20.8766 10.6644C21.2797 10.2616 21.9328 10.2616 22.3356 10.6644C22.7385 11.0673 22.7385 11.7204 22.3356 12.1234L12.1261 22.3327C11.9227 22.5349 11.6588 22.6351 11.3962 22.6351Z" fill="#5B5F60"/>
<path d="M21.6035 22.6352C21.3396 22.6352 21.0755 22.535 20.8749 22.3329L10.6656 12.1248C10.2625 11.722 10.2625 11.0689 10.6656 10.6661C11.0684 10.263 11.7215 10.263 12.1243 10.6661L22.3336 20.8754C22.7367 21.2782 22.7367 21.9313 22.3336 22.3341C22.1317 22.535 21.8676 22.6352 21.6035 22.6352Z" fill="#5B5F60"/>
</svg>
