<svg width="20" height="20" viewBox="0 0 20 20" fill="none" xmlns="http://www.w3.org/2000/svg">
<g clip-path="url(#clip0)">
<path d="M17.9393 2.59559L17.9393 2.59561L6.31222 14.2228L2.06064 9.97121C2.06063 9.9712 2.06063 9.9712 2.06062 9.97119C1.4748 9.38533 0.525123 9.38548 -0.0606689 9.97116L-0.0606867 9.97117C-0.646529 10.557 -0.646504 11.5067 -0.0607042 12.0925L-0.0607016 12.0925L5.25151 17.4046C5.25153 17.4046 5.25155 17.4046 5.25156 17.4047C5.83735 17.9906 6.78753 17.99 7.37289 17.4047L20.0606 4.71695C20.6465 4.13114 20.6464 3.1814 20.0606 2.59562C19.4748 2.00977 18.5251 2.00982 17.9393 2.59559Z" fill="white" stroke="white"/>
</g>
<defs>
<clipPath id="clip0">
<rect width="20" height="20" fill="white"/>
</clipPath>
</defs>
</svg>
