<svg width="35" height="34" viewBox="0 0 35 34" fill="none" xmlns="http://www.w3.org/2000/svg">
<path d="M17.6829 0H17.6744C8.32072 0 0.714355 7.60848 0.714355 16.9643C0.714355 20.6752 1.91034 24.1147 3.94393 26.9075L1.82976 33.2097L8.3504 31.1252C11.0329 32.9022 14.2328 33.9286 17.6829 33.9286C27.0366 33.9286 34.6429 26.318 34.6429 16.9643C34.6429 7.6106 27.0366 0 17.6829 0ZM27.554 23.9557C27.1447 25.1114 25.5204 26.0699 24.2247 26.3498C23.3384 26.5385 22.1805 26.6891 18.283 25.0732C13.2976 23.0078 10.0871 17.9419 9.8369 17.6132C9.59728 17.2845 7.82239 14.9307 7.82239 12.4963C7.82239 10.0619 9.05866 8.87656 9.55699 8.36763C9.96625 7.94989 10.6427 7.75904 11.2916 7.75904C11.5015 7.75904 11.6902 7.76964 11.8599 7.77812C12.3582 7.79933 12.6084 7.82902 12.9371 8.61574C13.3464 9.60179 14.343 12.0362 14.4618 12.2864C14.5827 12.5366 14.7035 12.8759 14.5339 13.2046C14.3748 13.5439 14.2349 13.6944 13.9847 13.9828C13.7344 14.2712 13.4969 14.4917 13.2467 14.8013C13.0177 15.0706 12.759 15.359 13.0474 15.8574C13.3358 16.3451 14.3324 17.9715 15.7998 19.2778C17.6935 20.9636 19.2288 21.5022 19.778 21.7312C20.1872 21.9009 20.675 21.8606 20.974 21.5425C21.3535 21.1333 21.8222 20.4547 22.2993 19.7867C22.6386 19.3075 23.0669 19.2481 23.5165 19.4177C23.9745 19.5768 26.3983 20.7749 26.8966 21.023C27.3949 21.2732 27.7236 21.392 27.8445 21.6019C27.9632 21.8118 27.9632 22.7979 27.554 23.9557Z" fill="white"/>
</svg>
