<svg width="25" height="23" viewBox="0 0 25 23" fill="none" xmlns="http://www.w3.org/2000/svg">
<path d="M22.8027 2.17383H21.0449V0.953125C21.0449 0.548633 20.717 0.220703 20.3125 0.220703C19.908 0.220703 19.5801 0.548633 19.5801 0.953125V2.17383H13.2324V0.953125C13.2324 0.548633 12.9045 0.220703 12.5 0.220703C12.0955 0.220703 11.7676 0.548633 11.7676 0.953125V2.17383H5.41992V0.953125C5.41992 0.548633 5.09199 0.220703 4.6875 0.220703C4.28301 0.220703 3.95508 0.548633 3.95508 0.953125V2.17383H2.19727C0.985693 2.17383 0 3.15952 0 4.37109V20.582C0 21.7936 0.985693 22.7793 2.19727 22.7793H22.8027C24.0143 22.7793 25 21.7936 25 20.582C25 20.1093 25 4.78247 25 4.37109C25 3.15952 24.0143 2.17383 22.8027 2.17383ZM1.46484 4.37109C1.46484 3.96724 1.79341 3.63867 2.19727 3.63867H3.95508V4.85938C3.95508 5.26387 4.28301 5.5918 4.6875 5.5918C5.09199 5.5918 5.41992 5.26387 5.41992 4.85938V3.63867H11.7676V4.85938C11.7676 5.26387 12.0955 5.5918 12.5 5.5918C12.9045 5.5918 13.2324 5.26387 13.2324 4.85938V3.63867H19.5801V4.85938C19.5801 5.26387 19.908 5.5918 20.3125 5.5918C20.717 5.5918 21.0449 5.26387 21.0449 4.85938V3.63867H22.8027C23.2066 3.63867 23.5352 3.96724 23.5352 4.37109V7.25195H1.46484V4.37109ZM22.8027 21.3145H2.19727C1.79341 21.3145 1.46484 20.9859 1.46484 20.582V8.7168H23.5352V20.582C23.5352 20.9859 23.2066 21.3145 22.8027 21.3145Z" fill="black"/>
</svg>
